# xmcd
#
# Track frame offsets:
#	150
#	20333
#	43689
#	66191
#	80580
#	96499
#	113993
#	129009
#	145100
#	159193
#	175874
#	194312
#	216741
#	232599
#
# Disc length: 3303 seconds
#
# Revision: 0
# Processed by: cddbd v1.5.2PL0 Copyright (c) Steve Scherf et al.
# Submitted via: dBpowerAMP V4.0
#
DISCID=b90ce50e
DTITLE=Ankaralý Ýbo - Sen Tavþansýn Ben Tazý (2011)
DYEAR=1900
DGENRE=
TTITLE0=Allahýn Kazý
TTITLE1=At Hýrsýzý
TTITLE2=Atým Ekürü
TTITLE3=Oy Hediye
TTITLE4=Baþkent Kýzlarý
TTITLE5=Ecücük Sana Ecücük Bana
TTITLE6=Hayýrdýr Kecum Hayýrdýr
TTITLE7=Kontör Gönder Aþkým
TTITLE8=Týrrýp Bip Týrrýp Bip
TTITLE9=Ýmüðüne Duracak Vallahi
TTITLE10=Anam Geldim Kýþlaya
TTITLE11=Yenilmiþ Yutulmuþ Mezesin Sen
TTITLE12=Hastane önünde Ýncir Aðacý
TTITLE13=Küçüðüm
EXTD=
EXTT0=
EXTT1=
EXTT2=
EXTT3=
EXTT4=
EXTT5=
EXTT6=
EXTT7=
EXTT8=
EXTT9=
EXTT10=
EXTT11=
EXTT12=
EXTT13=
PLAYORDER=
